<?xml version="1.0" encoding="UTF-8"?>
<svg id="Capa_2" data-name="Capa 2" xmlns="http://www.w3.org/2000/svg" viewBox="0 0 1201.79 1529.76">
  <defs>
    <style>
      .cls-1 {
        fill: #902e1c;
      }

      .cls-2 {
        fill: #b16531;
      }

      .cls-3 {
        fill: #927259;
      }
    </style>
  </defs>
  <g id="Capa_1-2" data-name="Capa 1">
    <g>
      <path class="cls-1" d="m338.69,319.26c-197.23,231.74,134.52,743.42-178.75,1111.71,276.3-376.24-37.72-888.78,184.24-1110.24-24.38-22.41-184.08-10.31-215.32-14,34.3,65.24,102.33,254.5,6.56,293.46-61.7,21.63-119.49-10.08-129.73-73.73,15.54,38.51,53.06,70.22,96.23,61.27,116.26-24.92,36.19-201.46,26.94-281C24.21,297.81-7.16,335.54,1.31,436.42c73.38,7.38,57.89-68.98,58.02-117.68,41.94,47.42,23.26,165.07-58.02,117.68v493.94c78.38,27.88,93.6,130.79,17.27,171.14,43.6-60.57,32.43-118.31-17.27-171.14v369.46c47.89,19.48,130.08,105.9,79.31,154.49,12.93-62.18-51.72-104.58-79.31-154.49-1.75,59.83-10.51,158.02,76.79,158.11,0,0,219.05,0,219.05,0,34.89,0,64.52-23.17,73.78-54.66,2.58-8.77,2.81-18.03,1.68-27.1-11.57-93.15,38.83-1063.58-33.92-1056.91Zm-230.58,893.62c-26.37,17.11-61.1,29.58-91.82,18.02,81.85,7.65,137.67-69.81,164.3-142.45,9.55-26.05,12.57-54.08,9.3-81.63-16.01-134.98-112.52-256.93-173.61-376.12,121.63,158.37,317.39,425.53,91.82,582.19Zm164.73,235.05c-7.79-59.39,33.13-130.22,96.75-137.47-47.8,37.06-71.53,85.57-96.75,137.47Z"/>
      <path class="cls-3" d="m1161.37,390.57c-197.26,231.7,134.78,743.81-178.34,1112.07,0,0-.02,0-.01,0,276.16-376.21-43.64-890.63,178.35-1112.06,0,0,11.44,5.87,5.05,1.19-26.72-19.59-183.32-9.51-214.6-13.2,0,0,0,0,0,.01,34.32,65.25,102.47,254.49,6.56,293.45-61.7,21.74-119.48-10.06-129.76-73.67,0,0,.01-.01.01,0,15.56,38.48,53.08,70.16,96.24,61.21,116.33-24.85,36.19-201.45,26.94-281,0,0,0,0,0,0-104.74-8.94-135.88,28.62-127.46,129.68,0,0,0,0,0,0,73.29,7.33,57.78-69,57.91-117.66,0,0,0-.01.01,0,41.89,47.33,23.28,165.04-57.92,117.67,0,0-.01,0-.01,0v493.92s0,0,0,0c78.25,27.87,93.51,130.79,17.18,171.12,0,0-.01,0,0-.01,43.59-60.56,32.4-118.16-17.16-171.1,0,0-.01,0-.01,0v369.44s0,0,0,0c47.78,19.48,129.97,105.88,79.23,154.47,0,0-.01,0-.01,0,12.95-62.13-51.78-104.53-79.21-154.44,0,0-.01,0-.01,0-1.72,59.78-10.56,158,76.69,158.09,0,0,219.46,0,219.46,0,34.73,0,64.25-23.21,73.47-54.71,2.57-8.77,2.79-18.03,1.66-27.1-11.6-93.2,38.51-1064-34.25-1057.38,0,0,0,0,0,0Zm-229.51,890.05c-26.25,17.11-61.1,29.58-91.82,18.02,51.33,4.8,92.42-23.87,122.5-63.84,47.55-63.18,60.43-145.89,38.38-221.83-32.21-110.93-109.17-213.69-160.84-314.47,0,0,0-.02.01,0,121.63,158.38,317.3,425.48,91.77,582.12Zm164.84,235.02c-7.89-59.37,33.01-130.17,96.61-137.44,0,0,.01,0,0,.01-47.78,37.05-71.51,85.54-96.6,137.43,0,0-.01,0-.01,0Z"/>
      <path class="cls-2" d="m783.19,75.59c0-41.58-34.41-75.59-76.46-75.59h-219.46c-34.79,0-64.4,23.16-73.67,54.62-2.59,8.79-2.82,18.06-1.71,27.15,11.43,93.23-39.49,1062.55,32.9,1055.96,197.29-231.89-133.5-742.41,179.74-1110.78-276.21,376.37,34.98,886.36-186.99,1107.86,24.49,22.18,186.94,12.73,218.19,16.37-34.31-65.13-102.48-254.41-6.68-293.38,61.72-21.75,119.52,10.08,129.77,73.74-15.54-38.51-53.08-70.34-96.26-61.28-116.25,24.85-36.19,201.51-26.83,280.92,104.8,8.91,135.92-28.82,127.47-129.7-73.42-7.04-57.74,69.04-58.03,117.8-41.74-47.39-23.43-164.86,58.03-117.8v-493.87c-78.31-27.84-93.65-130.7-17.27-171.16-43.73,60.58-32.34,118.27,17.27,171.16V158.13c-47.9-19.48-130-105.91-79.34-154.51-12.8,62.15,51.78,104.56,79.34,154.51v-82.54Zm-369.13,73.21c47.8-37.06,71.53-85.57,96.75-137.47,7.8,59.39-33.13,130.22-96.75,137.47Zm353.3,79.56c-81.74-7.63-137.51,69.52-164.18,142.09-9.65,26.26-12.7,54.54-9.37,82.33,16.16,134.86,112.48,256.68,173.55,375.78-81.83-107.97-165.27-224.19-195.4-358.21-2.95-13.12-4.4-26.57-3.59-39.99,5.92-97.77,94.14-224.68,198.99-202Z"/>
    </g>
  </g>
</svg>