<?xml version="1.0" encoding="UTF-8"?>
<svg id="Capa_2" data-name="Capa 2" xmlns="http://www.w3.org/2000/svg" viewBox="0 0 694.43 496.47">
  <defs>
    <style>
      .cls-1 {
        fill: #3f1214;
      }

      .cls-2 {
        fill: #902e1c;
      }

      .cls-3 {
        fill: #b16531;
      }

      .cls-4 {
        fill: #927259;
      }
    </style>
  </defs>
  <g id="Capa_1-2" data-name="Capa 1">
    <g>
      <g>
        <path class="cls-2" d="m291.58,77.42c-47.83,56.19,32.62,180.27-43.34,269.57,67-91.23-9.15-215.51,44.68-269.22-5.91-5.43-44.64-2.5-52.21-3.4,8.32,15.82,24.81,61.71,1.59,71.16-14.96,5.25-28.97-2.44-31.46-17.88,3.77,9.34,12.87,17.03,23.33,14.86,28.19-6.04,8.78-48.85,6.53-68.14-25.37-2.16-32.98,6.99-30.93,31.45,17.79,1.79,14.04-16.73,14.07-28.54,10.17,11.5,5.64,40.03-14.07,28.54v119.77c19.01,6.76,22.7,31.71,4.19,41.5,10.57-14.69,7.86-28.69-4.19-41.5v89.59c11.61,4.72,31.54,25.68,19.23,37.46,3.14-15.08-12.54-25.36-19.23-37.46-.42,14.51-2.55,38.32,18.62,38.34,0,0,53.12,0,53.12,0,8.46,0,15.64-5.62,17.89-13.25.63-2.13.68-4.37.41-6.57-2.81-22.59,9.41-257.9-8.23-256.28Zm-55.91,216.69c-6.39,4.15-14.82,7.17-22.27,4.37,19.85,1.86,33.38-16.93,39.84-34.54,2.32-6.32,3.05-13.11,2.26-19.79-3.88-32.73-27.28-62.3-42.1-91.2,29.49,38.4,76.96,103.18,22.27,141.17Zm39.94,57c-1.89-14.4,8.03-31.58,23.46-33.33-11.59,8.99-17.35,20.75-23.46,33.33Z"/>
        <path class="cls-4" d="m491.07,94.71c-47.83,56.18,32.68,180.36-43.24,269.66,0,0,0,0,0,0,66.96-91.23-10.58-215.96,43.25-269.66,0,0,2.77,1.42,1.22.29-6.48-4.75-44.45-2.31-52.04-3.2,0,0,0,0,0,0,8.32,15.82,24.85,61.71,1.59,71.16-14.96,5.27-28.97-2.44-31.46-17.86,0,0,0,0,0,0,3.77,9.33,12.87,17.01,23.34,14.84,28.21-6.03,8.78-48.85,6.53-68.14,0,0,0,0,0,0-25.4-2.17-32.95,6.94-30.91,31.45,0,0,0,0,0,0,17.77,1.78,14.01-16.73,14.04-28.53,0,0,0,0,0,0,10.16,11.48,5.65,40.02-14.05,28.53,0,0,0,0,0,0v119.77s0,0,0,0c18.98,6.76,22.67,31.71,4.17,41.49,0,0,0,0,0,0,10.57-14.69,7.86-28.65-4.16-41.49,0,0,0,0,0,0v89.58s0,0,0,0c11.59,4.72,31.52,25.67,19.21,37.46,0,0,0,0,0,0,3.14-15.07-12.56-25.35-19.21-37.45,0,0,0,0,0,0-.42,14.5-2.56,38.31,18.6,38.33,0,0,53.22,0,53.22,0,8.42,0,15.58-5.63,17.82-13.27.62-2.13.68-4.37.4-6.57-2.81-22.6,9.34-258-8.31-256.4,0,0,0,0,0,0Zm-55.65,215.82c-6.37,4.15-14.82,7.17-22.27,4.37,12.45,1.16,22.41-5.79,29.7-15.48,11.53-15.32,14.65-35.37,9.31-53.79-7.81-26.9-26.47-51.82-39-76.25,0,0,0,0,0,0,29.49,38.4,76.94,103.17,22.25,141.15Zm39.97,56.99c-1.91-14.4,8.01-31.56,23.43-33.33,0,0,0,0,0,0-11.59,8.98-17.34,20.74-23.42,33.32,0,0,0,0,0,0Z"/>
        <path class="cls-3" d="m399.36,18.33c0-10.08-8.34-18.33-18.54-18.33h-53.22c-8.44,0-15.62,5.61-17.86,13.25-.63,2.13-.68,4.38-.41,6.58,2.77,22.61-9.58,257.65,7.98,256.05,47.84-56.23-32.37-180.02,43.58-269.35-66.98,91.26,8.48,214.93-45.34,268.64,5.94,5.38,45.33,3.09,52.91,3.97-8.32-15.79-24.85-61.69-1.62-71.14,14.97-5.27,28.98,2.44,31.47,17.88-3.77-9.34-12.87-17.06-23.34-14.86-28.19,6.03-8.77,48.86-6.51,68.12,25.41,2.16,32.96-6.99,30.91-31.45-17.8-1.71-14,16.74-14.07,28.57-10.12-11.49-5.68-39.98,14.07-28.57v-119.76c-18.99-6.75-22.71-31.69-4.19-41.5-10.6,14.69-7.84,28.68,4.19,41.5V38.34c-11.61-4.72-31.52-25.68-19.24-37.47-3.1,15.07,12.56,25.35,19.24,37.47v-20.01Zm-89.51,17.75c11.59-8.99,17.35-20.75,23.46-33.33,1.89,14.4-8.03,31.58-23.46,33.33Zm85.67,19.29c-19.82-1.85-33.34,16.86-39.81,34.46-2.34,6.37-3.08,13.23-2.27,19.96,3.92,32.7,27.27,62.24,42.08,91.12-19.84-26.18-40.08-54.36-47.38-86.86-.72-3.18-1.07-6.44-.87-9.7,1.43-23.71,22.83-54.48,48.25-48.98Z"/>
      </g>
      <g>
        <path class="cls-1" d="m6.07,438.51c1.67,0,4.09-.17,7.25-.52s5.55-.52,7.17-.52c5.98,0,10.57,1.11,13.75,3.32,3.4,2.49,5.1,5.67,5.1,9.56,0,2.53-.73,4.93-2.19,7.19-1.46,2.26-3.35,4.12-5.67,5.57l-.24.22c0,.05.11.12.32.22,3.24.58,5.97,2.17,8.19,4.79,2.22,2.62,3.32,5.68,3.32,9.19s-1.05,6.87-3.16,9.65c-2.11,2.77-4.56,4.77-7.37,6.01-2.75,1.24-6.07,1.86-9.95,1.86-1.3,0-3.2-.08-5.7-.24-2.5-.16-4.39-.24-5.7-.24-.91,0-2.39.03-4.43.08-2.04.05-3.7.08-4.99.08h-.16c-.32,0-.58-.03-.76-.07-.19-.05-.38-.22-.56-.52s-.28-.72-.28-1.27c0-.6.2-.97.59-1.12.39-.15,1.34-.46,2.85-.94.47-.05.83-.11,1.09-.16.36-.05.64-.12.82-.2s.36-.24.55-.48c.18-.24.27-.57.27-1v-44.68c0-1.01-.27-1.66-.82-1.95s-1.51-.49-2.91-.6h-.39c-.93,0-1.4-.65-1.4-1.96,0-.88.49-1.33,1.46-1.33.05,0,.24.01.57.04s.8.04,1.42.04h1.98Zm25.88,13.63c0-1.14-.19-2.29-.57-3.46-.38-1.17-1-2.35-1.86-3.54-.86-1.19-2.14-2.17-3.83-2.93-1.7-.76-3.68-1.14-5.94-1.14-3.07,0-5.01.33-5.81.98-.27.22-.4.57-.4,1.06v17.99c0,.71.3,1.06.89,1.06h4.76c5.81,0,9.66-1.76,11.55-5.29.81-1.63,1.21-3.2,1.21-4.72Zm-12.03,38.8c4.36,0,8.08-1.15,11.15-3.46,3.07-2.3,4.61-5.49,4.61-9.57,0-2.7-.79-5.2-2.38-7.51-1.59-2.3-4.05-3.8-7.39-4.49-1.78-.37-4.09-.56-6.95-.56h-4.2c-.81,0-1.21.42-1.21,1.27v20.97c0,.58.04,1.03.12,1.35.08.32.31.65.69.99.38.34.94.57,1.69.67,1.61.21,2.91.32,3.88.32Z"/>
        <path class="cls-1" d="m106.72,439.94c0,.82-.28,1.35-.83,1.62-.55.26-1.14.39-1.77.39s-1.22.44-1.77,1.33c-.55.88-.83,2.32-.83,4.3,0,.11-.01.27-.04.48-.03.21-.04.35-.04.4v18.59c0,.43.01,1.07.04,1.92.03.85.04,1.5.04,1.92v2.64c0,1.76-.07,3.33-.21,4.69s-.44,2.93-.91,4.69c-.47,1.76-1.24,3.39-2.32,4.89s-2.44,2.8-4.09,3.93c-3.91,2.67-9.23,4.01-15.96,4.01-3.71,0-7.06-.4-10.05-1.2-2.99-.8-5.3-1.72-6.94-2.75-1.64-1.04-3.08-2.29-4.32-3.75-1.24-1.46-2.06-2.63-2.46-3.51-.4-.88-.74-1.8-1.01-2.76-.7-2.5-1.05-5.99-1.05-10.46,0-.7.01-1.74.04-3.14.03-1.4.04-2.44.04-3.14v-20.75c0-.32-.01-.6-.04-.84-.03-.24-.12-.43-.29-.56-.17-.13-.28-.25-.33-.36-.06-.11-.25-.19-.59-.24s-.54-.09-.63-.12c-.08-.03-.36-.07-.83-.12s-.76-.08-.88-.08c-1.56-.23-2.33-.96-2.33-2.19,0-1.48.57-2.22,1.7-2.22.16,0,.59.03,1.3.08.7.05,1.69.11,2.96.16,1.27.05,2.64.08,4.1.08h.49c1.57,0,3.03-.03,4.38-.08,1.35-.05,2.41-.11,3.17-.16.76-.05,1.22-.08,1.38-.08,1.13,0,1.69.8,1.69,2.4,0,.47-.05.85-.17,1.14s-.34.5-.7.61c-.36.12-.69.2-.99.26-.3.05-.81.11-1.53.16-.72.05-1.32.11-1.82.16-1.82.21-2.73,1.18-2.73,2.9v25.74c0,3.65.32,6.73.97,9.25.65,2.52,2.03,4.72,4.15,6.6,3.3,3.01,8.29,4.51,14.96,4.51,7.75,0,12.81-2.49,15.2-7.48,1.08-2.25,1.63-5.31,1.63-9.17v-1.13c0-.59-.01-1.45-.04-2.57s-.04-1.98-.04-2.57v-22.36c0-.96-.08-1.73-.23-2.29s-.55-.98-1.19-1.25c-.64-.27-1.11-.43-1.42-.48s-1.12-.16-2.45-.32c-1.13-.12-1.69-.8-1.69-2.04,0-1.36.48-2.04,1.45-2.04.1,0,.46.03,1.07.08.61.05,1.42.11,2.44.18,1.02.06,2.23.1,3.62.1s2.61-.03,3.65-.1c1.03-.07,1.86-.13,2.48-.18.62-.05.98-.08,1.09-.08.98,0,1.47.8,1.47,2.4Z"/>
        <path class="cls-1" d="m144.34,452.22c1.74,0,2.6.79,2.6,2.35v15.34c0,1.57-.87,2.35-2.6,2.35-1.62,0-2.42-.61-2.42-1.82v-4.54c0-1.27-.73-1.9-2.19-1.9h-11.43c-.59,0-1.08.03-1.46.08-.38.05-.8.17-1.26.36-.46.19-.8.53-1.01,1.01-.22.49-.33,1.11-.33,1.86v19.02c0,.59.04,1.06.12,1.41.08.35.33.7.73,1.05.41.35.99.58,1.74.69,2.43.38,5.03.57,7.79.57,1.84,0,4.11-.16,6.81-.49,2.7-.32,4.41-.76,5.11-1.29.49-.38,1.46-1.87,2.92-4.49,1.46-2.62,2.41-4.06,2.84-4.33.32-.16.59-.24.81-.24.38,0,.72.16,1.01.49.3.32.45.78.45,1.37v.08c0,.48-.84,4.41-2.51,11.78-.11.65-.34,1.08-.69,1.29s-.96.32-1.82.32h-28.55c-2.49,0-4.8.16-6.93.48s-3.26.48-3.36.48c-.65,0-1.15-.31-1.5-.92-.35-.61-.53-1.11-.53-1.48,0-.59.22-1.02.65-1.28.43-.27,1.51-.72,3.24-1.37.97-.37,1.78-.67,2.43-.88,1.24-.43,1.86-1.5,1.86-3.21v-42.83c0-.59-.13-.96-.41-1.12s-.89-.32-1.86-.48c-.49-.05-1.08-.11-1.78-.17s-1.23-.12-1.58-.17-.72-.16-1.1-.3c-.38-.14-.65-.35-.81-.62s-.24-.64-.24-1.12c0-1.23.54-1.84,1.62-1.84h38.57c.92,0,1.51.46,1.78,1.37.21,1.02.53,2.45.93,4.28.41,1.83.76,3.38,1.06,4.64.3,1.26.45,1.95.45,2.06,0,.75-.57,1.12-1.7,1.12-.87,0-1.65-.48-2.35-1.43-2.43-4.19-3.81-6.46-4.15-6.83-.5-.48-1.29-.72-2.39-.72h-15.93c-1.1,0-1.8.27-2.11.8-.3.53-.45,1.31-.45,2.33v12.35c0,1.23.54,1.84,1.62,1.84h12.73c.59,0,1.08-.04,1.46-.13.38-.08.76-.34,1.14-.79.38-.44.57-1.08.57-1.91v-2.65c0-1.22.81-1.82,2.42-1.82Z"/>
        <path class="cls-1" d="m168.11,450v-.32c0-.74-.92-1.94-2.76-3.59-2.16-2.12-4.62-3.29-7.38-3.5-1.03,0-1.54-.65-1.54-1.95,0-1.48.62-2.21,1.86-2.21h10.22c1.35,0,2.46.54,3.32,1.62l12.98,14.92,7.62,8.42c10.16,10.83,15.46,16.38,15.89,16.65.11.11.22.16.33.16.45,0,.68-.27.68-.8,0-.64.03-1.55.1-2.75.06-1.2.11-2.29.15-3.27.03-.98.05-1.9.05-2.75,0-7.33-.33-15.43-.97-24.29-.05-1.59-.42-2.6-1.11-3.03-.69-.42-2.06-.74-4.12-.96-1.22-.17-1.82-.8-1.82-1.88,0-.51.19-.98.57-1.41.38-.43,1-.64,1.86-.64.11,0,.5.01,1.18.04.68.03,1.62.07,2.84.13,1.22.06,2.53.08,3.93.08s2.69-.03,3.85-.08c1.16-.06,2.08-.1,2.76-.13.68-.03,1.07-.04,1.18-.04,1.19,0,1.78.65,1.78,1.96,0,.45-.05.82-.16,1.11-.11.29-.33.5-.65.64s-.58.23-.77.25c-.19.03-.55.06-1.1.08-.54.03-.92.04-1.14.04-1.41.11-2.37.53-2.88,1.27-.51.74-.8,2.2-.85,4.38-.22,9.24-.33,16.3-.33,21.19,0,4.06.03,7.83.08,11.31.05,3.47.11,6.19.16,8.14.05,1.95.08,3.14.08,3.57,0,2.73-.57,4.1-1.7,4.1-.68,0-2.09-1.19-4.22-3.58l-17.19-19.48c-12.16-13.27-18.3-19.91-18.41-19.91l-.33.32c-.76,11.15-1.14,20.82-1.14,28.99v2.31c0,2.18.22,3.59.65,4.22.43.64,1.49,1.01,3.16,1.12,2.05,0,3.73.2,5.03.61.7.35,1.05,1.13,1.05,2.35,0,1.08-.46,1.61-1.38,1.61-.05,0-.27-.01-.65-.04-.38-.03-.88-.07-1.5-.12-.62-.05-1.34-.11-2.15-.16-.81-.05-1.73-.09-2.76-.12-1.03-.03-2.06-.04-3.08-.04-1.62,0-3.24.04-4.87.12-1.62.08-2.92.15-3.89.2l-1.46.16c-1.14,0-1.7-.57-1.7-1.7,0-1.3.41-2.09,1.22-2.39.32-.11,1.07-.2,2.23-.28,1.16-.08,2.16-.29,3-.64.84-.35,1.45-.92,1.82-1.71.21-.53.73-8.15,1.54-22.86.32-6.27.59-11.42.81-15.45Z"/>
        <path class="cls-1" d="m233.56,494.55c-.92,0-1.84.01-2.76.04-.92.03-1.73.07-2.43.12-.7.05-1.33.11-1.87.16-.54.05-.97.09-1.3.12-.32.03-.51.04-.57.04-1.14,0-1.7-.6-1.7-1.79,0-.28.01-.52.04-.72s.08-.38.16-.55c.08-.17.15-.31.2-.42.05-.11.17-.21.37-.3.19-.08.31-.14.36-.17.05-.03.23-.07.53-.12.3-.05.49-.09.57-.12.08-.03.32-.07.73-.12s.66-.08.77-.08c1.3-.16,2.27-.49,2.92-.99.65-.5,1.27-1.47,1.86-2.89,3.89-8.51,8.11-17.22,12.65-26.13,8-14.95,12.14-22.61,12.41-22.98.11-.11.27-.24.49-.4.59-.43,1.27-.64,2.03-.64,1.46,0,2.62,1.05,3.49,3.14l11.92,27.36c6.05,14.27,9.14,21.48,9.24,21.64.59.85,1.39,1.4,2.39,1.66,1,.26,1.86.45,2.59.56.73.11,1.15.45,1.26,1.02.11.46.16.85.16,1.19,0,1.25-.57,1.87-1.7,1.87l-1.38-.16c-.92-.05-2.15-.12-3.69-.2-1.54-.08-3.04-.12-4.5-.12-1.78,0-3.41.04-4.87.12-1.46.08-2.61.16-3.45.24-.84.08-1.34.12-1.5.12-1.14,0-1.7-.48-1.7-1.45,0-.28.01-.54.04-.77s.08-.44.16-.64c.08-.2.13-.35.16-.47.03-.11.15-.23.36-.34s.38-.18.49-.21c.11-.03.32-.07.65-.13.33-.06.58-.1.77-.13.19-.03.53-.07,1.01-.12.49-.05.89-.11,1.22-.16,1.14-.21,1.7-.74,1.7-1.58,0-.79-.66-3.21-1.99-7.25-1.33-4.04-2.75-7.73-4.26-11.06-.22-.53-.7-.79-1.46-.79h-19.54c-.87,0-1.49.32-1.86.95-1.89,3.43-3.58,6.99-5.07,10.66-1.49,3.67-2.23,5.96-2.23,6.86,0,.95.31,1.57.93,1.86.62.29,1.71.52,3.28.68.49,0,.84.03,1.05.08,1.19.11,1.78.82,1.78,2.13s-.6,1.88-1.78,1.88c-.16,0-.63-.04-1.42-.12-.78-.08-1.86-.16-3.24-.24s-2.88-.12-4.5-.12Zm30.9-28.7c.49,0,.73-.21.73-.64s-1.07-3.1-3.2-8.02c-2.14-4.92-3.5-7.88-4.1-8.9-.22-.37-.51-.56-.89-.56-.49,0-1,.48-1.54,1.44-5.68,10.58-8.51,16.01-8.51,16.28s.16.4.49.4h17.03Z"/>
        <path class="cls-1" d="m370.81,495.03c-1.06,0-1.58-.71-1.58-2.12,0-.89.3-1.47.9-1.73.6-.27,1.55-.45,2.86-.56.87-.05,1.57-.13,2.09-.24.52-.11,1.04-.29,1.55-.56.52-.26.9-.68,1.15-1.23.25-.55.37-1.26.37-2.11v-17.65c0-8.21-.08-12.56-.24-13.04-.05-.32-.25-.48-.57-.48-.38,0-.76.32-1.14.96-2.11,3.34-4.89,8.07-8.33,14.19-3.44,6.12-6.43,11.57-8.98,16.35-2.54,4.78-4.01,7.42-4.39,7.93-.54.67-1.16,1.01-1.87,1.01-.97,0-1.95-1.06-2.92-3.19-2.71-5.58-5.81-11.4-9.3-17.44-3.49-6.04-6.35-10.81-8.57-14.31-2.22-3.5-3.47-5.33-3.74-5.49-.05-.05-.13-.08-.24-.08-.22,0-.32.13-.32.4-.33,5.73-.49,11.37-.49,16.94,0,4.61.11,9.46.32,14.55.11,1.54.33,2.44.66,2.7.55.37,1.48.56,2.77.56s2.4.16,3.31.48,1.37,1.03,1.37,2.14c0,1.35-.51,2.03-1.51,2.03-.06,0-.28-.01-.67-.04-.39-.03-.91-.07-1.55-.12-.64-.05-1.34-.11-2.1-.16-.76-.05-1.67-.09-2.72-.12-1.06-.03-2.06-.04-3.01-.04s-1.96.01-3.02.04c-1.06.03-1.97.07-2.74.12-.76.05-1.46.11-2.08.16-.63.05-1.13.09-1.51.12-.38.03-.6.04-.65.04-1.03,0-1.55-.65-1.55-1.94,0-.41.04-.74.13-1,.08-.26.22-.5.41-.7s.38-.35.58-.44c.19-.09.51-.18.95-.26.44-.09.81-.16,1.12-.22s.78-.11,1.44-.17,1.21-.11,1.65-.16c.44-.05.83-.15,1.16-.28.33-.13.58-.26.74-.4.16-.13.3-.37.41-.72s.18-.61.21-.8c.03-.19.07-.53.13-1.03.05-.5.08-.86.08-1.07,1.3-16.7,1.95-28.84,1.95-36.42,0-.64-.3-1.33-.9-2.07-.05-.05-.4-.46-1.05-1.23-.65-.77-1.19-1.35-1.62-1.75s-1.14-.82-2.11-1.27c-.97-.45-2.03-.68-3.16-.68-1.08-.16-1.62-.65-1.62-1.49,0-.52.09-.93.28-1.21.19-.29.36-.44.53-.47.16-.03.38-.04.65-.04h11.87c.96,0,1.65.34,2.08,1.02l15.76,25.74,9.66,15.1c.33.64.81.95,1.46.95.49,0,.87-.29,1.14-.87l22.57-41.23c.27-.47.75-.7,1.44-.7h12.03c.27,0,.47.01.61.04.13.03.27.18.4.47s.2.69.2,1.21c0,.42-.07.76-.2,1.02-.13.26-.4.47-.81.63s-.83.28-1.26.36c-.43.08-1.06.21-1.86.4-.81.19-1.6.38-2.35.6-1.35.32-2.03,1.11-2.03,2.38.11,9.01.2,16.62.28,22.82s.13,10.3.16,12.28c.03,1.99.04,3.49.04,4.49v.56c0,.9.03,1.55.08,1.95.05.4.3.81.74,1.23s1.12.69,2.05.79c.38.05.86.09,1.43.12.57.03,1,.05,1.27.08.27.03.6.07.98.13.38.06.64.15.78.26.14.12.3.26.49.44s.31.4.37.66.08.57.08.93c0,.59-.16,1.06-.49,1.41s-.73.53-1.22.53l-1.54-.16c-1.03-.05-2.4-.12-4.11-.2s-3.4-.12-5.08-.12c-1.08,0-2.16.01-3.24.04-1.08.03-2.02.07-2.83.12-.81.05-1.55.11-2.22.16-.67.05-1.21.09-1.59.12-.39.03-.61.04-.67.04Z"/>
        <path class="cls-1" d="m405.24,494.55c-.92,0-1.84.01-2.76.04-.92.03-1.73.07-2.43.12-.7.05-1.33.11-1.87.16-.54.05-.97.09-1.3.12-.32.03-.51.04-.57.04-1.14,0-1.7-.6-1.7-1.79,0-.28.01-.52.04-.72s.08-.38.16-.55c.08-.17.15-.31.2-.42.05-.11.17-.21.37-.3.19-.08.31-.14.36-.17.05-.03.23-.07.53-.12.3-.05.49-.09.57-.12.08-.03.32-.07.73-.12s.66-.08.77-.08c1.3-.16,2.27-.49,2.92-.99.65-.5,1.27-1.47,1.86-2.89,3.89-8.51,8.11-17.22,12.65-26.13,8-14.95,12.14-22.61,12.41-22.98.11-.11.27-.24.49-.4.59-.43,1.27-.64,2.03-.64,1.46,0,2.62,1.05,3.49,3.14l11.92,27.36c6.05,14.27,9.14,21.48,9.24,21.64.59.85,1.39,1.4,2.39,1.66,1,.26,1.86.45,2.59.56.73.11,1.15.45,1.26,1.02.11.46.16.85.16,1.19,0,1.25-.57,1.87-1.7,1.87l-1.38-.16c-.92-.05-2.15-.12-3.69-.2-1.54-.08-3.04-.12-4.5-.12-1.78,0-3.41.04-4.87.12-1.46.08-2.61.16-3.45.24-.84.08-1.34.12-1.5.12-1.14,0-1.7-.48-1.7-1.45,0-.28.01-.54.04-.77s.08-.44.16-.64c.08-.2.13-.35.16-.47.03-.11.15-.23.36-.34s.38-.18.49-.21c.11-.03.32-.07.65-.13.33-.06.58-.1.77-.13.19-.03.53-.07,1.01-.12.49-.05.89-.11,1.22-.16,1.14-.21,1.7-.74,1.7-1.58,0-.79-.66-3.21-1.99-7.25-1.33-4.04-2.75-7.73-4.26-11.06-.22-.53-.7-.79-1.46-.79h-19.54c-.87,0-1.49.32-1.86.95-1.89,3.43-3.58,6.99-5.07,10.66-1.49,3.67-2.23,5.96-2.23,6.86,0,.95.31,1.57.93,1.86.62.29,1.71.52,3.28.68.49,0,.84.03,1.05.08,1.19.11,1.78.82,1.78,2.13s-.6,1.88-1.78,1.88c-.16,0-.63-.04-1.42-.12s-1.86-.16-3.24-.24-2.88-.12-4.5-.12Zm30.9-28.7c.49,0,.73-.21.73-.64s-1.07-3.1-3.2-8.02c-2.14-4.92-3.5-7.88-4.1-8.9-.22-.37-.51-.56-.89-.56-.49,0-1,.48-1.54,1.44-5.68,10.58-8.51,16.01-8.51,16.28s.16.4.49.4h17.03Z"/>
        <path class="cls-1" d="m462.9,440.95c0-1.04.62-1.57,1.85-1.57h14.98c10.74,0,18.71,1.19,23.91,3.57,4.46,2.07,8.19,5.13,11.19,9.21,3.01,4.07,4.51,8.81,4.51,14.2,0,6.9-2.42,12.95-7.25,18.15-4.83,5.19-10.39,8.38-16.67,9.55-1.93.32-4.37.48-7.33.48h-23.35c-1.29,0-1.93-.79-1.93-2.37,0-.33.03-.59.08-.78.05-.19.17-.35.37-.49.19-.13.38-.24.57-.33.19-.08.49-.13.89-.16s.77-.05,1.1-.08.81-.04,1.46-.04,1.22-.03,1.7-.08c.92-.05,1.53-.31,1.82-.76.3-.45.45-1.19.45-2.2v-41.46c0-1.33-.36-2.16-1.09-2.48s-2.18-.51-4.34-.56h-1.38c-1.03,0-1.54-.6-1.54-1.8Zm24,49.59c6.6,0,12.33-1.96,17.19-5.88,4.87-3.92,7.3-9.3,7.3-16.13,0-4.05-.87-7.96-2.6-11.72-1.73-3.76-4.19-6.82-7.38-9.17-4.7-3.36-10.46-5.04-17.27-5.04-2.33,0-3.83.16-4.5.48-.68.32-1.01,1.01-1.01,2.08v41.7c0,1.01.21,1.75.65,2.2.43.45,1.22.79,2.35,1,1.78.32,3.54.48,5.27.48Z"/>
        <path class="cls-1" d="m557.29,452.22c1.74,0,2.6.79,2.6,2.35v15.34c0,1.57-.87,2.35-2.6,2.35-1.62,0-2.42-.61-2.42-1.82v-4.54c0-1.27-.73-1.9-2.19-1.9h-11.43c-.59,0-1.08.03-1.46.08-.38.05-.8.17-1.26.36-.46.19-.8.53-1.01,1.01-.22.49-.33,1.11-.33,1.86v19.02c0,.59.04,1.06.12,1.41.08.35.33.7.73,1.05.41.35.99.58,1.74.69,2.43.38,5.03.57,7.79.57,1.84,0,4.11-.16,6.81-.49,2.7-.32,4.41-.76,5.11-1.29.49-.38,1.46-1.87,2.92-4.49,1.46-2.62,2.41-4.06,2.84-4.33.32-.16.59-.24.81-.24.38,0,.72.16,1.01.49.3.32.45.78.45,1.37v.08c0,.48-.84,4.41-2.51,11.78-.11.65-.34,1.08-.69,1.29s-.96.32-1.82.32h-28.55c-2.49,0-4.8.16-6.93.48s-3.26.48-3.36.48c-.65,0-1.15-.31-1.5-.92-.35-.61-.53-1.11-.53-1.48,0-.59.22-1.02.65-1.28.43-.27,1.51-.72,3.24-1.37.97-.37,1.78-.67,2.43-.88,1.24-.43,1.86-1.5,1.86-3.21v-42.83c0-.59-.13-.96-.41-1.12s-.89-.32-1.86-.48c-.49-.05-1.08-.11-1.78-.17s-1.23-.12-1.58-.17-.72-.16-1.1-.3c-.38-.14-.65-.35-.81-.62s-.24-.64-.24-1.12c0-1.23.54-1.84,1.62-1.84h38.57c.92,0,1.51.46,1.78,1.37.21,1.02.53,2.45.93,4.28.41,1.83.76,3.38,1.06,4.64.3,1.26.45,1.95.45,2.06,0,.75-.57,1.12-1.7,1.12-.87,0-1.65-.48-2.35-1.43-2.43-4.19-3.81-6.46-4.15-6.83-.5-.48-1.29-.72-2.39-.72h-15.93c-1.1,0-1.8.27-2.11.8-.3.53-.45,1.31-.45,2.33v12.35c0,1.23.54,1.84,1.62,1.84h12.73c.59,0,1.08-.04,1.46-.13.38-.08.76-.34,1.14-.79.38-.44.57-1.08.57-1.91v-2.65c0-1.22.81-1.82,2.42-1.82Z"/>
        <path class="cls-1" d="m592.33,438.1c3.44,0,6.46.47,9.05,1.4,2.59.93,4.56,2.13,5.91,3.6,1.35,1.47,2.34,2.97,2.98,4.52.63,1.55.95,3.12.95,4.72,0,3.53-1.06,6.52-3.18,8.98-2.12,2.46-4.06,4.01-5.82,4.65-.27.17-.4.32-.4.43s.05.23.16.35c2.92,3.46,5.38,6.67,7.39,9.63,2,2.97,3.58,5.41,4.75,7.34,1.16,1.92,2.12,3.31,2.88,4.17,1.57,1.76,3.05,2.65,4.46,2.65.81,0,1.54-.31,2.19-.92.65-.61,1.11-.92,1.38-.92.59,0,.89.32.89.96,0,.91-.69,2.12-2.07,3.65-1.38,1.52-3.12,2.29-5.23,2.29-2.81,0-5.73-1.98-8.76-5.93l-7.96-11.71c-4.7-6.52-7.27-9.91-7.7-10.18-.27-.21-.73-.32-1.38-.32h-6.08c-.76,0-1.14.4-1.14,1.2v19.24c0,1.6.7,2.49,2.11,2.65.48.05,1.05.11,1.7.16.65.05,1.15.09,1.5.12.35.03.76.05,1.22.08s.81.07,1.06.12c.24.05.51.12.81.2s.51.17.65.28c.13.11.25.25.36.44s.19.39.24.6c.05.21.08.45.08.72,0,1.18.67,1.76,2.01,1.76.06,0-.73-.01-2.39-.04-1.66-.03-2.82-.07-3.5-.12-.68-.05-1.44-.11-2.3-.16-.86-.05-1.84-.09-2.95-.12-1.11-.03-2.2-.04-3.28-.04s-1.53.01-1.34.04c.19.03-.75.07-2.83.12-2.07.05-3.46.11-4.16.16-.7.05-1.25.09-1.63.12-.39.03-.61.04-.67.04-.97,0-1.46-.75-1.46-2.24,0-.21.01-.4.04-.56.03-.16.08-.29.16-.4.08-.11.16-.2.24-.28.08-.08.21-.15.4-.2s.37-.11.53-.16.4-.09.73-.12c.33-.03.59-.04.81-.04s.55-.01,1.01-.04.85-.07,1.18-.12c.92-.11,1.53-.39,1.82-.84s.45-1.14.45-2.04v-42.41c0-1.23-.35-1.99-1.06-2.29-.7-.29-2.68-.71-5.92-1.24-.86-.16-1.3-.61-1.3-1.36,0-1.02.38-1.52,1.14-1.52h2.84c2.6,0,5.89-.17,9.89-.52,4-.35,6.84-.52,8.51-.52Zm12.9,15.59c0-3.33-1.41-6.23-4.22-8.69-2.81-2.46-6.27-3.69-10.38-3.69-2.54,0-4.19.29-4.95.88-.32.21-.49.64-.49,1.27v.08l.08.16v19.11c0,.69.27,1.1.81,1.23.54.13,2.08.2,4.62.2,3.13,0,5.7-.37,7.7-1.11,1.89-.74,3.5-1.93,4.83-3.57,1.32-1.64,1.99-3.6,1.99-5.87Z"/>
        <path class="cls-1" d="m637.91,494.55c-.92,0-1.84.01-2.76.04-.92.03-1.73.07-2.43.12-.7.05-1.33.11-1.87.16-.54.05-.97.09-1.3.12-.32.03-.51.04-.57.04-1.14,0-1.7-.6-1.7-1.79,0-.28.01-.52.04-.72s.08-.38.16-.55c.08-.17.15-.31.2-.42.05-.11.17-.21.37-.3.19-.08.31-.14.36-.17.05-.03.23-.07.53-.12.3-.05.49-.09.57-.12.08-.03.32-.07.73-.12s.66-.08.77-.08c1.3-.16,2.27-.49,2.92-.99.65-.5,1.27-1.47,1.86-2.89,3.89-8.51,8.11-17.22,12.65-26.13,8-14.95,12.14-22.61,12.41-22.98.11-.11.27-.24.49-.4.59-.43,1.27-.64,2.03-.64,1.46,0,2.62,1.05,3.49,3.14l11.92,27.36c6.05,14.27,9.14,21.48,9.24,21.64.59.85,1.39,1.4,2.39,1.66,1,.26,1.86.45,2.59.56.73.11,1.15.45,1.26,1.02.11.46.16.85.16,1.19,0,1.25-.57,1.87-1.7,1.87l-1.38-.16c-.92-.05-2.15-.12-3.69-.2-1.54-.08-3.04-.12-4.5-.12-1.78,0-3.41.04-4.87.12-1.46.08-2.61.16-3.45.24-.84.08-1.34.12-1.5.12-1.14,0-1.7-.48-1.7-1.45,0-.28.01-.54.04-.77s.08-.44.16-.64c.08-.2.13-.35.16-.47.03-.11.15-.23.36-.34s.38-.18.49-.21c.11-.03.32-.07.65-.13.33-.06.58-.1.77-.13.19-.03.53-.07,1.01-.12.49-.05.89-.11,1.22-.16,1.14-.21,1.7-.74,1.7-1.58,0-.79-.66-3.21-1.99-7.25-1.33-4.04-2.75-7.73-4.26-11.06-.22-.53-.7-.79-1.46-.79h-19.54c-.87,0-1.49.32-1.86.95-1.89,3.43-3.58,6.99-5.07,10.66-1.49,3.67-2.23,5.96-2.23,6.86,0,.95.31,1.57.93,1.86.62.29,1.71.52,3.28.68.49,0,.84.03,1.05.08,1.19.11,1.78.82,1.78,2.13s-.6,1.88-1.78,1.88c-.16,0-.63-.04-1.42-.12s-1.86-.16-3.24-.24-2.88-.12-4.5-.12Zm30.9-28.7c.49,0,.73-.21.73-.64s-1.07-3.1-3.2-8.02c-2.14-4.92-3.5-7.88-4.1-8.9-.22-.37-.51-.56-.89-.56-.49,0-1,.48-1.54,1.44-5.68,10.58-8.51,16.01-8.51,16.28s.16.4.49.4h17.03Z"/>
      </g>
    </g>
  </g>
</svg>