<?xml version="1.0" encoding="UTF-8"?>
<svg id="Capa_2" data-name="Capa 2" xmlns="http://www.w3.org/2000/svg" viewBox="0 0 2759.55 960.31">
  <defs>
    <style>
      .cls-1 {
        fill: #3f1214;
      }

      .cls-2 {
        fill: #902e1c;
      }

      .cls-3 {
        fill: #b16531;
      }

      .cls-4 {
        fill: #927259;
      }
    </style>
  </defs>
  <g id="Capa_1-2" data-name="Capa 1">
    <g>
      <g>
        <path class="cls-2" d="m212.61,200.42c-123.81,145.47,84.44,466.68-112.21,697.88,173.45-236.19-23.68-557.93,115.66-696.96-15.31-14.07-115.56-6.47-135.17-8.79,21.53,40.95,64.24,159.76,4.12,184.22-38.73,13.58-75.01-6.33-81.44-46.29,9.75,24.17,33.31,44.08,60.41,38.47,72.98-15.64,22.72-126.47,16.91-176.4C15.2,186.95-4.5,210.64.83,273.96c46.06,4.63,36.34-43.3,36.42-73.87,26.33,29.77,14.6,103.62-36.42,73.87v310.07c49.2,17.5,58.76,82.1,10.84,107.43,27.37-38.02,20.36-74.27-10.84-107.43v231.93c30.06,12.23,81.66,66.48,49.79,96.98,8.12-39.03-32.47-65.65-49.79-96.98-1.1,37.56-6.6,99.2,48.2,99.25,0,0,137.51,0,137.51,0,21.9,0,40.5-14.55,46.31-34.31,1.62-5.51,1.76-11.32,1.06-17.01-7.27-58.47,24.37-667.67-21.3-663.48ZM67.86,761.39c-16.55,10.74-38.36,18.57-57.64,11.31,51.38,4.8,86.42-43.82,103.14-89.42,6-16.35,7.89-33.95,5.84-51.25-10.05-84.73-70.63-161.29-108.98-236.11,76.35,99.42,199.24,267.12,57.64,365.47Zm103.41,147.55c-4.89-37.28,20.8-81.75,60.74-86.3-30.01,23.26-44.9,53.71-60.74,86.3Z"/>
        <path class="cls-4" d="m729.05,245.18c-123.83,145.45,84.61,466.93-111.95,698.11,0,0-.01,0,0,0,173.36-236.17-27.4-559.1,111.96-698.1,0,0,7.18,3.69,3.17.75-16.77-12.3-115.08-5.97-134.72-8.29,0,0,0,0,0,0,21.54,40.96,64.33,159.76,4.12,184.22-38.73,13.65-75-6.31-81.46-46.24,0,0,0,0,0,0,9.77,24.16,33.32,44.04,60.41,38.43,73.02-15.6,22.72-126.46,16.91-176.4,0,0,0,0,0,0-65.75-5.61-85.3,17.96-80.01,81.41,0,0,0,0,0,0,46.01,4.6,36.27-43.32,36.35-73.86,0,0,0,0,0,0,26.3,29.71,14.62,103.61-36.36,73.87,0,0,0,0,0,0v310.06s0,0,0,0c49.12,17.5,58.7,82.1,10.79,107.42,0,0,0,0,0,0,27.36-38.02,20.34-74.17-10.77-107.41,0,0,0,0,0,0v231.92s0,0,0,0c29.99,12.23,81.59,66.47,49.74,96.97,0,0,0,0,0,0,8.13-39-32.51-65.62-49.73-96.95,0,0,0,0,0,0-1.08,37.53-6.63,99.18,48.14,99.24,0,0,137.77,0,137.77,0,21.8,0,40.33-14.57,46.12-34.35,1.61-5.51,1.75-11.32,1.04-17.01-7.28-58.5,24.18-667.93-21.5-663.78,0,0,0,0,0,0Zm-144.08,558.73c-16.48,10.74-38.36,18.57-57.64,11.31,32.22,3.01,58.02-14.99,76.9-40.07,29.85-39.66,37.93-91.58,24.09-139.25-20.22-69.64-68.53-134.14-100.97-197.41,0,0,0-.01,0,0,76.36,99.42,199.19,267.1,57.61,365.43Zm103.48,147.54c-4.96-37.27,20.72-81.72,60.65-86.28,0,0,0,0,0,0-29.99,23.26-44.89,53.7-60.64,86.27,0,0,0,0,0,0Z"/>
        <path class="cls-3" d="m491.65,47.45c0-26.1-21.6-47.45-48-47.45h-137.77c-21.84,0-40.43,14.54-46.25,34.29-1.63,5.52-1.77,11.34-1.07,17.04,7.17,58.53-24.79,667.02,20.65,662.88,123.85-145.57-83.81-466.05,112.83-697.29-173.39,236.27,21.96,556.42-117.38,695.47,15.37,13.92,117.35,7.99,136.97,10.28-21.54-40.89-64.33-159.71-4.19-184.17,38.74-13.65,75.03,6.33,81.46,46.29-9.76-24.18-33.32-44.16-60.43-38.47-72.98,15.6-22.72,126.5-16.84,176.35,65.79,5.59,85.33-18.09,80.02-81.42-46.09-4.42-36.25,43.34-36.43,73.95-26.2-29.75-14.71-103.49,36.43-73.95v-310.03c-49.16-17.48-58.79-82.05-10.84-107.44-27.45,38.03-20.3,74.25,10.84,107.44V99.27c-30.07-12.23-81.61-66.49-49.8-96.99-8.04,39.01,32.51,65.64,49.8,96.99v-51.81Zm-231.72,45.96c30.01-23.26,44.9-53.71,60.74-86.3,4.89,37.28-20.8,81.75-60.74,86.3Zm221.79,49.94c-51.31-4.79-86.32,43.64-103.07,89.2-6.06,16.49-7.97,34.24-5.88,51.68,10.15,84.66,70.61,161.13,108.95,235.9-51.37-67.78-103.75-140.74-122.67-224.87-1.85-8.24-2.76-16.68-2.25-25.1,3.71-61.38,59.1-141.04,124.92-126.81Z"/>
      </g>
      <g>
        <path class="cls-1" d="m977.5,469.63c4.33,0,10.59-.45,18.76-1.35,8.17-.9,14.36-1.35,18.56-1.35,15.49,0,27.36,2.86,35.59,8.6,8.79,6.43,13.19,14.68,13.19,24.75,0,6.55-1.89,12.75-5.67,18.61-3.78,5.85-8.67,10.66-14.69,14.42l-.63.56c0,.13.27.32.83.57,8.4,1.49,15.46,5.62,21.2,12.4,5.74,6.78,8.61,14.7,8.61,23.78s-2.72,17.79-8.17,24.97c-5.45,7.17-11.8,12.36-19.07,15.56-7.12,3.2-15.71,4.81-25.77,4.81-3.37,0-8.29-.21-14.75-.62-6.46-.42-11.37-.62-14.75-.62-2.37,0-6.19.07-11.47.21-5.28.14-9.59.21-12.93.21h-.42c-.83,0-1.49-.07-1.98-.19-.49-.13-.98-.58-1.46-1.35-.49-.77-.73-1.86-.73-3.28,0-1.54.51-2.51,1.52-2.89,1.01-.39,3.47-1.2,7.37-2.45,1.21-.14,2.15-.27,2.83-.42.94-.13,1.65-.3,2.12-.51s.94-.62,1.41-1.24c.47-.62.71-1.48.71-2.58v-115.68c0-2.62-.71-4.3-2.11-5.06-1.41-.76-3.92-1.27-7.54-1.55h-1c-2.42,0-3.62-1.69-3.62-5.08,0-2.29,1.26-3.43,3.77-3.43.14,0,.63.03,1.47.1s2.06.1,3.67.1h5.14Zm67,35.29c0-2.95-.49-5.93-1.47-8.95-.98-3.02-2.58-6.07-4.81-9.17-2.23-3.08-5.54-5.62-9.93-7.58-4.39-1.97-9.51-2.95-15.37-2.95-7.95,0-12.96.84-15.05,2.53-.7.56-1.05,1.48-1.05,2.74v46.58c0,1.83.76,2.74,2.3,2.74h12.33c15.05,0,25.01-4.57,29.89-13.71,2.09-4.21,3.14-8.29,3.14-12.23Zm-31.15,100.45c11.3,0,20.92-2.98,28.88-8.95,7.95-5.96,11.93-14.22,11.93-24.78,0-6.99-2.05-13.47-6.17-19.43-4.11-5.96-10.49-9.83-19.14-11.62-4.6-.96-10.6-1.44-17.99-1.44h-10.88c-2.09,0-3.14,1.1-3.14,3.29v54.29c0,1.51.1,2.67.31,3.5.21.83.8,1.68,1.78,2.57.97.89,2.44,1.47,4.39,1.74,4.18.55,7.53.83,10.03.83Z"/>
        <path class="cls-1" d="m1238.07,473.36c0,2.11-.72,3.51-2.15,4.18-1.43.68-2.96,1.02-4.58,1.02s-3.15,1.15-4.58,3.44c-1.43,2.29-2.15,6-2.15,11.13,0,.28-.03.7-.1,1.25-.07.56-.1.9-.1,1.04v48.14c0,1.11.03,2.77.11,4.98.07,2.21.1,3.87.1,4.98v6.85c0,4.57-.18,8.61-.54,12.14-.35,3.53-1.14,7.58-2.35,12.14-1.22,4.57-3.21,8.78-5.99,12.66-2.78,3.87-6.31,7.26-10.59,10.17-10.13,6.92-23.9,10.37-41.31,10.37-9.61,0-18.29-1.03-26.02-3.1-7.73-2.07-13.72-4.44-17.97-7.13-4.25-2.69-7.98-5.93-11.18-9.72-3.2-3.79-5.33-6.82-6.38-9.1-1.04-2.27-1.91-4.65-2.61-7.14-1.81-6.48-2.71-15.51-2.71-27.08,0-1.8.03-4.51.1-8.12.07-3.61.11-6.32.11-8.12v-53.73c0-.83-.04-1.56-.11-2.18-.07-.62-.32-1.11-.76-1.46-.43-.34-.72-.66-.86-.94-.15-.28-.65-.49-1.52-.62s-1.4-.24-1.62-.31c-.22-.07-.93-.18-2.16-.32-1.22-.14-1.98-.21-2.27-.21-4.03-.61-6.04-2.49-6.04-5.66,0-3.84,1.47-5.75,4.41-5.75.42,0,1.54.07,3.36.21,1.82.14,4.38.28,7.67.42,3.29.14,6.83.21,10.61.21h1.26c4.06,0,7.84-.07,11.35-.21,3.5-.14,6.23-.28,8.19-.42,1.96-.14,3.15-.21,3.57-.21,2.91,0,4.37,2.07,4.37,6.21,0,1.21-.14,2.2-.43,2.95s-.89,1.29-1.82,1.59c-.93.31-1.79.53-2.57.66-.79.14-2.11.28-3.97.42-1.86.14-3.42.28-4.71.42-4.72.56-7.07,3.05-7.07,7.5v66.63c0,9.44.84,17.42,2.52,23.95,1.68,6.53,5.26,12.22,10.73,17.07,8.56,7.78,21.46,11.67,38.72,11.67,20.05,0,33.17-6.46,39.34-19.37,2.81-5.83,4.21-13.74,4.21-23.74v-2.91c0-1.52-.03-3.75-.1-6.66-.07-2.91-.1-5.14-.1-6.66v-57.89c0-2.49-.2-4.48-.6-5.93-.4-1.46-1.42-2.53-3.07-3.23-1.66-.69-2.88-1.11-3.67-1.25s-2.91-.42-6.35-.83c-2.91-.31-4.37-2.07-4.37-5.29,0-3.53,1.25-5.29,3.75-5.29.27,0,1.19.07,2.77.21,1.58.14,3.69.29,6.32.46,2.64.17,5.76.25,9.38.25s6.77-.09,9.44-.25c2.67-.17,4.82-.32,6.43-.46,1.61-.14,2.54-.21,2.81-.21,2.54,0,3.82,2.07,3.82,6.21Z"/>
        <path class="cls-1" d="m1335.46,505.13c4.5,0,6.74,2.03,6.74,6.09v39.7c0,4.06-2.25,6.09-6.74,6.09-4.18,0-6.27-1.57-6.27-4.7v-11.76c0-3.28-1.89-4.92-5.67-4.92h-29.6c-1.54,0-2.8.07-3.78.21-.98.14-2.07.45-3.25.94-1.19.49-2.07,1.36-2.62,2.62-.56,1.26-.84,2.86-.84,4.82v49.23c0,1.54.11,2.76.32,3.66.21.91.84,1.82,1.89,2.73,1.05.9,2.55,1.5,4.52,1.78,6.3.98,13.01,1.47,20.15,1.47,4.76,0,10.64-.42,17.63-1.26,7-.83,11.41-1.96,13.23-3.35,1.26-.98,3.78-4.85,7.56-11.63,3.78-6.77,6.23-10.51,7.35-11.21.84-.42,1.54-.63,2.1-.63.98,0,1.85.42,2.62,1.26.77.83,1.15,2.02,1.15,3.55v.21c0,1.25-2.17,11.42-6.51,30.51-.28,1.67-.88,2.79-1.79,3.34s-2.49.83-4.72.83h-73.9c-6.44,0-12.42.42-17.95,1.25-5.53.83-8.43,1.25-8.71,1.25-1.68,0-2.98-.8-3.89-2.39-.91-1.59-1.37-2.87-1.37-3.84,0-1.52.56-2.63,1.68-3.33,1.12-.69,3.91-1.87,8.4-3.54,2.52-.97,4.62-1.73,6.3-2.28,3.22-1.11,4.83-3.88,4.83-8.31v-110.89c0-1.52-.35-2.49-1.05-2.91s-2.31-.83-4.83-1.25c-1.26-.14-2.8-.28-4.62-.43s-3.18-.3-4.09-.45c-.91-.15-1.86-.41-2.84-.78-.98-.37-1.68-.9-2.1-1.59s-.63-1.66-.63-2.91c0-3.18,1.4-4.77,4.2-4.77h99.85c2.38,0,3.92,1.18,4.62,3.55.56,2.65,1.36,6.34,2.41,11.08,1.05,4.74,1.96,8.74,2.73,12.01.77,3.27,1.15,5.05,1.15,5.33,0,1.94-1.47,2.91-4.41,2.91-2.24,0-4.27-1.23-6.09-3.7-6.3-10.83-9.88-16.73-10.73-17.69-1.28-1.23-3.35-1.85-6.19-1.85h-41.24c-2.85,0-4.67.69-5.45,2.08-.78,1.38-1.17,3.39-1.17,6.02v31.96c0,3.18,1.39,4.77,4.2,4.77h32.96c1.54,0,2.8-.11,3.78-.32.98-.21,1.96-.89,2.94-2.04.98-1.14,1.47-2.79,1.47-4.94v-6.87c0-3.15,2.09-4.72,6.27-4.72Z"/>
        <path class="cls-1" d="m1397,499.4v-.82c0-1.93-2.38-5.02-7.14-9.28-5.6-5.5-11.97-8.52-19.1-9.07-2.66,0-3.99-1.69-3.99-5.06,0-3.82,1.61-5.73,4.83-5.73h26.46c3.5,0,6.36,1.39,8.61,4.19l33.59,38.62,19.74,21.8c26.31,28.04,40.03,42.41,41.15,43.09.28.27.56.41.84.41,1.17,0,1.76-.69,1.76-2.06,0-1.65.08-4.02.25-7.11.17-3.1.29-5.92.38-8.46.08-2.54.13-4.92.13-7.11,0-18.97-.84-39.94-2.52-62.89-.14-4.12-1.1-6.73-2.88-7.83-1.78-1.1-5.33-1.92-10.67-2.47-3.15-.44-4.72-2.06-4.72-4.87,0-1.32.49-2.54,1.47-3.64.98-1.11,2.59-1.66,4.83-1.66.28,0,1.29.04,3.04.11,1.75.07,4.2.19,7.35.34,3.15.15,6.54.22,10.18.22s6.96-.07,9.97-.22c3.01-.15,5.39-.26,7.14-.34,1.75-.07,2.76-.11,3.04-.11,3.08,0,4.62,1.69,4.62,5.07,0,1.17-.14,2.13-.42,2.86-.28.74-.84,1.29-1.68,1.66s-1.51.59-1.99.66c-.49.07-1.44.15-2.84.22-1.4.07-2.38.11-2.94.11-3.64.27-6.12,1.37-7.45,3.3-1.33,1.93-2.07,5.71-2.2,11.34-.56,23.92-.84,42.2-.84,54.85,0,10.52.07,20.28.21,29.28.14,9,.28,16.02.42,21.08.14,5.05.21,8.13.21,9.24,0,7.07-1.47,10.61-4.41,10.61-1.76,0-5.4-3.09-10.92-9.26l-44.51-50.43c-31.49-34.36-47.38-51.55-47.66-51.55l-.84.82c-1.96,28.87-2.94,53.89-2.94,75.06v5.98c0,5.63.56,9.28,1.68,10.93,1.12,1.65,3.85,2.62,8.19,2.89,5.32,0,9.66.52,13.02,1.57,1.82.9,2.73,2.93,2.73,6.08,0,2.79-1.19,4.18-3.57,4.18-.14,0-.71-.04-1.68-.1-.98-.07-2.27-.17-3.89-.31-1.61-.14-3.46-.28-5.56-.42-2.1-.14-4.48-.24-7.14-.31-2.66-.07-5.32-.1-7.98-.1-4.2,0-8.4.1-12.6.31-4.2.21-7.56.38-10.08.52l-3.78.42c-2.94,0-4.41-1.47-4.41-4.4,0-3.36,1.05-5.42,3.15-6.19.84-.27,2.76-.51,5.77-.71,3.01-.2,5.6-.75,7.77-1.65,2.17-.9,3.74-2.37,4.72-4.43.56-1.37,1.89-21.11,3.99-59.18.84-16.22,1.54-29.56,2.1-40.01Z"/>
        <path class="cls-1" d="m1566.42,614.72c-2.38,0-4.76.03-7.14.1-2.38.07-4.48.17-6.3.31-1.82.14-3.43.27-4.83.42-1.4.14-2.52.24-3.36.31-.84.07-1.33.1-1.47.1-2.94,0-4.41-1.54-4.41-4.63,0-.73.03-1.36.1-1.87.07-.51.21-.99.42-1.44.21-.44.38-.81.52-1.1.14-.29.45-.55.95-.77.49-.22.8-.37.94-.44.14-.07.59-.18,1.37-.32.77-.14,1.26-.24,1.47-.32.21-.07.84-.18,1.89-.32,1.05-.14,1.71-.21,2-.21,3.36-.41,5.88-1.27,7.56-2.57,1.68-1.3,3.29-3.79,4.83-7.49,10.08-22.02,21-44.57,32.75-67.65,20.71-38.7,31.42-58.53,32.12-59.5.28-.27.7-.62,1.26-1.04,1.54-1.1,3.29-1.66,5.25-1.66,3.78,0,6.79,2.71,9.02,8.12l30.86,70.83c15.67,36.94,23.65,55.62,23.93,56.03,1.54,2.19,3.6,3.63,6.19,4.31,2.59.68,4.83,1.17,6.72,1.45,1.89.29,2.97,1.16,3.25,2.63.28,1.18.42,2.21.42,3.09,0,3.24-1.47,4.85-4.41,4.85l-3.57-.42c-2.38-.14-5.57-.31-9.55-.52-3.99-.21-7.87-.31-11.65-.31-4.62,0-8.82.1-12.6.31-3.78.21-6.75.42-8.92.62-2.17.21-3.47.31-3.89.31-2.94,0-4.41-1.25-4.41-3.75,0-.73.03-1.39.1-1.98.07-.59.21-1.14.42-1.66.21-.51.34-.92.42-1.21.07-.29.38-.59.94-.88.56-.29.98-.47,1.26-.55.28-.07.84-.18,1.68-.33.84-.15,1.5-.25,2-.33.49-.07,1.37-.18,2.62-.31,1.26-.14,2.31-.28,3.15-.42,2.94-.54,4.41-1.91,4.41-4.1,0-2.05-1.72-8.31-5.14-18.78-3.43-10.47-7.11-20.01-11.03-28.63-.56-1.37-1.82-2.05-3.78-2.05h-50.6c-2.24,0-3.85.82-4.83,2.46-4.9,8.89-9.27,18.09-13.12,27.6-3.85,9.51-5.77,15.43-5.77,17.75,0,2.46.81,4.07,2.42,4.82,1.61.76,4.44,1.34,8.5,1.75,1.26,0,2.17.07,2.73.21,3.08.29,4.62,2.13,4.62,5.52s-1.54,4.86-4.62,4.86c-.42,0-1.64-.1-3.67-.31-2.03-.21-4.83-.42-8.4-.62-3.57-.21-7.45-.31-11.65-.31Zm79.99-74.31c1.26,0,1.89-.55,1.89-1.66s-2.76-8.02-8.29-20.76c-5.53-12.73-9.07-20.41-10.6-23.04-.56-.97-1.33-1.45-2.31-1.45-1.26,0-2.59,1.25-3.99,3.74-14.7,27.4-22.04,41.44-22.04,42.14s.42,1.04,1.26,1.04h44.09Z"/>
        <path class="cls-1" d="m1921.76,615.97c-2.73,0-4.09-1.83-4.09-5.48,0-2.3.77-3.79,2.33-4.48,1.55-.69,4.02-1.17,7.41-1.45,2.26-.14,4.06-.34,5.4-.62,1.34-.27,2.68-.75,4.02-1.44,1.35-.68,2.33-1.75,2.97-3.19.64-1.44.95-3.26.95-5.45v-45.7c0-21.27-.21-32.52-.63-33.76-.14-.82-.64-1.24-1.47-1.24-.98,0-1.96.83-2.94,2.47-5.47,8.64-12.65,20.89-21.55,36.74-8.9,15.85-16.65,29.96-23.24,42.33-6.59,12.37-10.37,19.21-11.35,20.52-1.4,1.74-3.01,2.62-4.84,2.62-2.52,0-5.05-2.76-7.57-8.27-7.01-14.45-15.04-29.51-24.08-45.15-9.04-15.65-16.44-28-22.18-37.05-5.75-9.06-8.97-13.79-9.67-14.21-.14-.14-.35-.21-.63-.21-.56,0-.84.34-.84,1.03-.84,14.82-1.26,29.44-1.26,43.85,0,11.94.28,24.5.84,37.67.29,3.98.86,6.31,1.71,7,1.43.96,3.82,1.44,7.18,1.44s6.21.42,8.57,1.25c2.35.83,3.54,2.68,3.54,5.54,0,3.5-1.31,5.25-3.91,5.25-.15,0-.73-.04-1.74-.1-1.01-.07-2.35-.17-4.02-.31-1.66-.14-3.48-.28-5.44-.42-1.96-.14-4.31-.24-7.04-.31-2.73-.07-5.33-.1-7.79-.1s-5.06.03-7.81.1c-2.75.07-5.11.17-7.08.31-1.97.14-3.77.27-5.39.42-1.62.14-2.93.24-3.91.31-.99.07-1.55.1-1.69.1-2.67,0-4.01-1.67-4.01-5.02,0-1.05.1-1.92.32-2.6.21-.68.57-1.28,1.07-1.81.5-.53,1-.9,1.5-1.13.5-.23,1.31-.46,2.45-.68,1.14-.23,2.1-.42,2.89-.56.78-.15,2.03-.29,3.74-.43,1.71-.14,3.13-.28,4.28-.41,1.14-.14,2.14-.38,3-.72.85-.34,1.49-.68,1.92-1.03.42-.34.78-.96,1.07-1.85.28-.89.46-1.58.54-2.06.07-.48.18-1.37.32-2.68.14-1.3.21-2.23.21-2.78,3.36-43.23,5.04-74.66,5.04-94.28,0-1.65-.78-3.43-2.33-5.36-.13-.14-1.03-1.2-2.71-3.19-1.68-1.99-3.08-3.5-4.2-4.53-1.12-1.03-2.94-2.13-5.46-3.29-2.52-1.17-5.25-1.75-8.19-1.75-2.8-.4-4.2-1.69-4.2-3.85,0-1.35.24-2.4.73-3.14.49-.74.94-1.15,1.36-1.22.42-.07.98-.1,1.68-.1h30.73c2.49,0,4.28.88,5.38,2.63l40.8,66.64,25.02,39.08c.84,1.65,2.1,2.47,3.79,2.47,1.26,0,2.24-.75,2.94-2.26l58.44-106.73c.69-1.21,1.93-1.82,3.74-1.82h31.15c.7,0,1.22.03,1.58.1.34.07.7.47,1.05,1.22s.53,1.79.53,3.13c0,1.08-.18,1.96-.53,2.63-.35.68-1.05,1.22-2.1,1.63s-2.14.72-3.25.93c-1.12.21-2.73.55-4.83,1.03-2.1.48-4.13,1-6.09,1.54-3.5.82-5.25,2.88-5.25,6.17.27,23.33.52,43.03.73,59.09.21,16.06.34,26.66.42,31.8.07,5.15.1,9.02.1,11.63v1.44c0,2.33.07,4.01.21,5.04.14,1.03.78,2.1,1.91,3.19,1.13,1.1,2.9,1.79,5.3,2.05.99.14,2.23.24,3.71.31,1.48.07,2.58.14,3.29.22.71.08,1.55.19,2.54.34.99.15,1.66.38,2.02.68.35.3.78.68,1.27,1.14.49.46.81,1.03.95,1.71.14.68.21,1.48.21,2.4,0,1.54-.42,2.75-1.26,3.66-.84.9-1.9,1.36-3.16,1.36l-4-.42c-2.67-.14-6.21-.31-10.64-.52-4.42-.21-8.81-.31-13.16-.31-2.8,0-5.59.03-8.38.1-2.79.07-5.23.17-7.32.31-2.09.14-4.01.27-5.76.42-1.74.14-3.12.24-4.13.31-1,.07-1.58.1-1.72.1Z"/>
        <path class="cls-1" d="m2010.88,614.72c-2.38,0-4.76.03-7.14.1-2.38.07-4.48.17-6.3.31-1.82.14-3.43.27-4.83.42-1.4.14-2.52.24-3.36.31-.84.07-1.33.1-1.47.1-2.94,0-4.41-1.54-4.41-4.63,0-.73.03-1.36.1-1.87.07-.51.21-.99.42-1.44.21-.44.38-.81.52-1.1.14-.29.45-.55.95-.77.49-.22.8-.37.94-.44.14-.07.59-.18,1.37-.32.77-.14,1.26-.24,1.47-.32.21-.07.84-.18,1.89-.32,1.05-.14,1.71-.21,2-.21,3.36-.41,5.88-1.27,7.56-2.57,1.68-1.3,3.29-3.79,4.83-7.49,10.08-22.02,21-44.57,32.75-67.65,20.71-38.7,31.42-58.53,32.12-59.5.28-.27.7-.62,1.26-1.04,1.54-1.1,3.29-1.66,5.25-1.66,3.78,0,6.79,2.71,9.02,8.12l30.86,70.83c15.67,36.94,23.65,55.62,23.93,56.03,1.54,2.19,3.6,3.63,6.19,4.31,2.59.68,4.83,1.17,6.72,1.45,1.89.29,2.97,1.16,3.25,2.63.28,1.18.42,2.21.42,3.09,0,3.24-1.47,4.85-4.41,4.85l-3.57-.42c-2.38-.14-5.57-.31-9.55-.52-3.99-.21-7.87-.31-11.65-.31-4.62,0-8.82.1-12.6.31-3.78.21-6.75.42-8.92.62-2.17.21-3.47.31-3.89.31-2.94,0-4.41-1.25-4.41-3.75,0-.73.03-1.39.1-1.98.07-.59.21-1.14.42-1.66.21-.51.34-.92.42-1.21.07-.29.38-.59.94-.88.56-.29.98-.47,1.26-.55.28-.07.84-.18,1.68-.33.84-.15,1.5-.25,2-.33.49-.07,1.37-.18,2.62-.31,1.26-.14,2.31-.28,3.15-.42,2.94-.54,4.41-1.91,4.41-4.1,0-2.05-1.72-8.31-5.14-18.78-3.43-10.47-7.11-20.01-11.03-28.63-.56-1.37-1.82-2.05-3.78-2.05h-50.6c-2.24,0-3.85.82-4.83,2.46-4.9,8.89-9.27,18.09-13.12,27.6-3.85,9.51-5.77,15.43-5.77,17.75,0,2.46.81,4.07,2.42,4.82,1.61.76,4.44,1.34,8.5,1.75,1.26,0,2.17.07,2.73.21,3.08.29,4.62,2.13,4.62,5.52s-1.54,4.86-4.62,4.86c-.42,0-1.64-.1-3.67-.31-2.03-.21-4.83-.42-8.4-.62-3.57-.21-7.45-.31-11.65-.31Zm79.99-74.31c1.26,0,1.89-.55,1.89-1.66s-2.76-8.02-8.29-20.76c-5.53-12.73-9.07-20.41-10.6-23.04-.56-.97-1.33-1.45-2.31-1.45-1.26,0-2.59,1.25-3.99,3.74-14.7,27.4-22.04,41.44-22.04,42.14s.42,1.04,1.26,1.04h44.09Z"/>
        <path class="cls-1" d="m2160.15,475.97c0-2.7,1.6-4.05,4.8-4.05h38.77c27.79,0,48.42,3.08,61.91,9.24,11.54,5.35,21.19,13.29,28.97,23.83,7.78,10.55,11.68,22.8,11.68,36.77,0,17.88-6.26,33.54-18.76,46.98-12.51,13.44-26.9,21.69-43.15,24.73-5,.83-11.32,1.25-18.97,1.25h-60.45c-3.34,0-5-2.05-5-6.14,0-.85.07-1.52.21-2.01.14-.49.45-.92.95-1.27.49-.35.98-.63,1.47-.85.49-.21,1.26-.35,2.31-.42s2-.14,2.84-.21,2.1-.1,3.78-.1,3.15-.07,4.41-.21c2.38-.14,3.96-.8,4.72-1.97.77-1.17,1.15-3.07,1.15-5.7v-107.34c0-3.45-.94-5.59-2.83-6.42-1.89-.83-5.64-1.32-11.23-1.45h-3.57c-2.66,0-3.99-1.55-3.99-4.67Zm62.14,128.37c17.07,0,31.91-5.08,44.51-15.23,12.6-10.15,18.9-24.07,18.9-41.76,0-10.49-2.24-20.61-6.72-30.35-4.48-9.74-10.85-17.65-19.1-23.73-12.18-8.7-27.08-13.05-44.72-13.05-6.02,0-9.9.42-11.65,1.25-1.75.83-2.62,2.62-2.62,5.38v107.96c0,2.62.56,4.52,1.68,5.7,1.12,1.17,3.15,2.04,6.09,2.59,4.62.83,9.17,1.24,13.65,1.24Z"/>
        <path class="cls-1" d="m2404.51,505.13c4.5,0,6.74,2.03,6.74,6.09v39.7c0,4.06-2.25,6.09-6.74,6.09-4.18,0-6.27-1.57-6.27-4.7v-11.76c0-3.28-1.89-4.92-5.67-4.92h-29.6c-1.54,0-2.8.07-3.78.21-.98.14-2.07.45-3.25.94-1.19.49-2.07,1.36-2.62,2.62-.56,1.26-.84,2.86-.84,4.82v49.23c0,1.54.11,2.76.32,3.66.21.91.84,1.82,1.89,2.73,1.05.9,2.55,1.5,4.52,1.78,6.3.98,13.01,1.47,20.15,1.47,4.76,0,10.64-.42,17.63-1.26,7-.83,11.41-1.96,13.23-3.35,1.26-.98,3.78-4.85,7.56-11.63,3.78-6.77,6.23-10.51,7.35-11.21.84-.42,1.54-.63,2.1-.63.98,0,1.85.42,2.62,1.26.77.83,1.15,2.02,1.15,3.55v.21c0,1.25-2.17,11.42-6.51,30.51-.28,1.67-.88,2.79-1.79,3.34s-2.49.83-4.72.83h-73.9c-6.44,0-12.42.42-17.95,1.25-5.53.83-8.43,1.25-8.71,1.25-1.68,0-2.98-.8-3.89-2.39-.91-1.59-1.37-2.87-1.37-3.84,0-1.52.56-2.63,1.68-3.33,1.12-.69,3.91-1.87,8.4-3.54,2.52-.97,4.62-1.73,6.3-2.28,3.22-1.11,4.83-3.88,4.83-8.31v-110.89c0-1.52-.35-2.49-1.05-2.91s-2.31-.83-4.83-1.25c-1.26-.14-2.8-.28-4.62-.43s-3.18-.3-4.09-.45c-.91-.15-1.86-.41-2.84-.78-.98-.37-1.68-.9-2.1-1.59-.42-.69-.63-1.66-.63-2.91,0-3.18,1.4-4.77,4.2-4.77h99.85c2.38,0,3.92,1.18,4.62,3.55.56,2.65,1.36,6.34,2.41,11.08,1.05,4.74,1.96,8.74,2.73,12.01.77,3.27,1.15,5.05,1.15,5.33,0,1.94-1.47,2.91-4.41,2.91-2.24,0-4.27-1.23-6.09-3.7-6.3-10.83-9.88-16.73-10.73-17.69-1.28-1.23-3.35-1.85-6.19-1.85h-41.24c-2.85,0-4.67.69-5.45,2.08-.78,1.38-1.17,3.39-1.17,6.02v31.96c0,3.18,1.39,4.77,4.2,4.77h32.96c1.54,0,2.8-.11,3.78-.32.98-.21,1.96-.89,2.94-2.04.98-1.14,1.47-2.79,1.47-4.94v-6.87c0-3.15,2.09-4.72,6.27-4.72Z"/>
        <path class="cls-1" d="m2495.23,468.6c8.91,0,16.72,1.21,23.43,3.62,6.71,2.42,11.81,5.53,15.31,9.32,3.5,3.8,6.06,7.7,7.71,11.7,1.64,4.01,2.47,8.08,2.47,12.22,0,9.13-2.74,16.88-8.24,23.25-5.49,6.37-10.52,10.38-15.07,12.04-.7.45-1.05.82-1.05,1.12s.14.6.42.9c7.56,8.95,13.94,17.26,19.12,24.94,5.18,7.68,9.28,14.01,12.29,18.99,3.01,4.98,5.49,8.58,7.45,10.79,4.06,4.57,7.9,6.85,11.55,6.85,2.1,0,3.99-.8,5.67-2.39,1.68-1.59,2.87-2.39,3.57-2.39,1.54,0,2.31.83,2.31,2.49,0,2.35-1.79,5.5-5.35,9.44-3.57,3.94-8.09,5.92-13.54,5.92-7.28,0-14.84-5.12-22.67-15.36l-20.61-30.3c-12.18-16.88-18.83-25.67-19.94-26.36-.7-.55-1.89-.83-3.57-.83h-15.75c-1.96,0-2.94,1.04-2.94,3.11v49.82c0,4.15,1.82,6.43,5.46,6.85,1.25.14,2.72.28,4.4.42,1.68.14,2.97.24,3.89.31.91.07,1.96.14,3.15.21,1.19.07,2.1.17,2.73.31.63.14,1.33.31,2.1.52s1.33.45,1.68.73c.35.28.66.66.94,1.14s.49,1,.63,1.56c.14.55.21,1.17.21,1.87,0,3.04,1.74,4.57,5.21,4.57.17,0-1.9-.04-6.19-.1-4.29-.07-7.31-.17-9.06-.31-1.75-.14-3.73-.28-5.95-.42-2.22-.14-4.76-.24-7.63-.31-2.87-.07-5.7-.1-8.5-.1s-3.96.03-3.47.1c.49.07-1.95.17-7.31.31-5.37.14-8.95.27-10.77.42-1.81.14-3.23.24-4.23.31-1.01.07-1.59.1-1.72.1-2.52,0-3.78-1.94-3.78-5.81,0-.55.03-1.04.11-1.45.07-.42.21-.76.42-1.04.21-.28.42-.52.63-.73.21-.21.56-.38,1.05-.52s.95-.28,1.37-.42,1.05-.24,1.88-.31c.84-.07,1.54-.1,2.1-.1s1.44-.03,2.62-.1c1.19-.07,2.2-.17,3.05-.31,2.37-.28,3.95-1,4.72-2.18s1.16-2.94,1.16-5.29v-109.8c0-3.18-.91-5.16-2.73-5.92-1.82-.76-6.93-1.83-15.33-3.22-2.24-.42-3.36-1.59-3.36-3.53,0-2.63.98-3.94,2.94-3.94h7.35c6.72,0,15.26-.45,25.61-1.35,10.36-.9,17.71-1.35,22.04-1.35Zm33.38,40.35c0-8.63-3.64-16.13-10.92-22.5-7.28-6.37-16.24-9.55-26.88-9.55-6.58,0-10.85.76-12.81,2.27-.84.55-1.26,1.65-1.26,3.3v.21l.21.41v49.48c0,1.78.7,2.84,2.1,3.18,1.4.34,5.39.51,11.97.51,8.12,0,14.77-.96,19.95-2.87,4.89-1.92,9.06-5,12.49-9.24,3.42-4.24,5.14-9.31,5.14-15.2Z"/>
        <path class="cls-1" d="m2613.22,614.72c-2.38,0-4.76.03-7.14.1-2.38.07-4.48.17-6.3.31-1.82.14-3.43.27-4.83.42-1.4.14-2.52.24-3.36.31-.84.07-1.33.1-1.47.1-2.94,0-4.41-1.54-4.41-4.63,0-.73.03-1.36.1-1.87s.21-.99.42-1.44c.21-.44.38-.81.52-1.1.14-.29.45-.55.95-.77.49-.22.8-.37.94-.44.14-.07.59-.18,1.37-.32.77-.14,1.26-.24,1.47-.32.21-.07.84-.18,1.89-.32,1.05-.14,1.71-.21,2-.21,3.36-.41,5.88-1.27,7.56-2.57,1.68-1.3,3.29-3.79,4.83-7.49,10.08-22.02,21-44.57,32.75-67.65,20.71-38.7,31.42-58.53,32.12-59.5.28-.27.7-.62,1.26-1.04,1.54-1.1,3.29-1.66,5.25-1.66,3.78,0,6.79,2.71,9.02,8.12l30.86,70.83c15.67,36.94,23.65,55.62,23.93,56.03,1.54,2.19,3.6,3.63,6.19,4.31,2.59.68,4.83,1.17,6.72,1.45,1.89.29,2.97,1.16,3.25,2.63.28,1.18.42,2.21.42,3.09,0,3.24-1.47,4.85-4.41,4.85l-3.57-.42c-2.38-.14-5.57-.31-9.55-.52-3.99-.21-7.87-.31-11.65-.31-4.62,0-8.82.1-12.6.31-3.78.21-6.75.42-8.92.62-2.17.21-3.47.31-3.89.31-2.94,0-4.41-1.25-4.41-3.75,0-.73.03-1.39.1-1.98.07-.59.21-1.14.42-1.66.21-.51.34-.92.42-1.21.07-.29.38-.59.94-.88.56-.29.98-.47,1.26-.55.28-.07.84-.18,1.68-.33.84-.15,1.5-.25,2-.33.49-.07,1.37-.18,2.62-.31,1.26-.14,2.31-.28,3.15-.42,2.94-.54,4.41-1.91,4.41-4.1,0-2.05-1.72-8.31-5.14-18.78-3.43-10.47-7.11-20.01-11.03-28.63-.56-1.37-1.82-2.05-3.78-2.05h-50.6c-2.24,0-3.85.82-4.83,2.46-4.9,8.89-9.27,18.09-13.12,27.6-3.85,9.51-5.77,15.43-5.77,17.75,0,2.46.81,4.07,2.42,4.82,1.61.76,4.44,1.34,8.5,1.75,1.26,0,2.17.07,2.73.21,3.08.29,4.62,2.13,4.62,5.52s-1.54,4.86-4.62,4.86c-.42,0-1.64-.1-3.67-.31-2.03-.21-4.83-.42-8.4-.62-3.57-.21-7.45-.31-11.65-.31Zm79.99-74.31c1.26,0,1.89-.55,1.89-1.66s-2.76-8.02-8.29-20.76c-5.53-12.73-9.07-20.41-10.6-23.04-.56-.97-1.33-1.45-2.31-1.45-1.26,0-2.59,1.25-3.99,3.74-14.7,27.4-22.04,41.44-22.04,42.14s.42,1.04,1.26,1.04h44.09Z"/>
      </g>
    </g>
  </g>
</svg>